<svg id="svg" version="1.1" xmlns="http://www.w3.org/2000/svg" xmlns:xlink="http://www.w3.org/1999/xlink" width="400" height="400" viewBox="0, 0, 400,400"><g id="svgg"><path id="path0" d="" stroke="none" fill="#f4f4f4" fill-rule="evenodd"></path><path id="path1" d="M207.600 75.477 C 201.014 76.582,200.805 77.350,200.802 100.429 C 200.799 127.741,197.950 125.253,229.056 125.103 L 250.600 125.000 250.684 103.600 C 250.788 77.195,250.699 76.795,244.442 75.608 C 242.394 75.220,209.823 75.104,207.600 75.477 M105.565 125.982 C 100.658 127.469,100.616 127.667,100.508 149.800 C 100.371 177.833,98.204 175.722,126.913 175.523 C 152.468 175.345,150.394 177.566,150.398 150.371 C 150.400 128.206,150.229 127.390,145.288 126.018 C 143.535 125.531,107.161 125.499,105.565 125.982 M251.067 125.867 C 250.920 126.013,250.800 159.678,250.800 200.677 L 250.800 275.220 251.885 275.632 C 253.625 276.294,294.209 275.925,296.000 275.232 C 297.911 274.491,299.166 273.302,300.044 271.400 C 300.935 269.469,301.236 133.788,300.357 130.619 C 299.795 128.597,297.803 126.605,295.781 126.043 C 294.044 125.561,251.540 125.393,251.067 125.867 M107.385 225.981 C 100.628 227.023,100.404 227.819,100.404 250.800 C 100.404 277.947,98.258 275.800,125.400 275.800 C 152.632 275.800,150.403 278.048,150.380 250.600 C 150.358 223.632,152.443 225.831,126.800 225.735 C 117.230 225.700,108.493 225.810,107.385 225.981 M205.865 276.488 C 200.981 277.787,200.712 279.174,200.872 302.200 L 201.000 320.600 201.947 322.253 C 202.494 323.207,203.593 324.306,204.547 324.853 L 206.200 325.800 225.800 325.800 C 247.483 325.800,246.674 325.891,248.952 323.184 C 250.588 321.240,250.600 321.058,250.600 298.000 L 250.600 276.200 229.000 276.140 C 215.377 276.101,206.833 276.230,205.865 276.488 " stroke="none" fill="#2c242c" fill-rule="evenodd"></path><path id="path2" d="M0.000 200.000 L 0.000 400.000 200.000 400.000 L 400.000 400.000 400.000 200.000 L 400.000 0.000 200.000 0.000 L 0.000 0.000 0.000 200.000 M244.442 75.608 C 250.699 76.795,250.788 77.195,250.684 103.600 L 250.600 125.000 229.056 125.103 C 197.950 125.253,200.799 127.741,200.802 100.429 C 200.805 77.350,201.014 76.582,207.600 75.477 C 209.823 75.104,242.394 75.220,244.442 75.608 M145.288 126.018 C 150.229 127.390,150.400 128.206,150.398 150.371 C 150.394 177.566,152.468 175.345,126.913 175.523 C 98.204 175.722,100.371 177.833,100.508 149.800 C 100.616 127.667,100.658 127.469,105.565 125.982 C 107.161 125.499,143.535 125.531,145.288 126.018 M295.781 126.043 C 297.803 126.605,299.795 128.597,300.357 130.619 C 301.236 133.788,300.935 269.469,300.044 271.400 C 299.166 273.302,297.911 274.491,296.000 275.232 C 294.209 275.925,253.625 276.294,251.885 275.632 L 250.800 275.220 250.800 200.677 C 250.800 159.678,250.920 126.013,251.067 125.867 C 251.540 125.393,294.044 125.561,295.781 126.043 M146.000 226.642 C 150.374 228.688,150.362 228.621,150.380 250.600 C 150.403 278.048,152.632 275.800,125.400 275.800 C 98.258 275.800,100.404 277.947,100.404 250.800 C 100.404 229.882,100.577 228.770,104.116 226.940 C 107.281 225.303,142.601 225.052,146.000 226.642 M250.600 298.000 C 250.600 321.058,250.588 321.240,248.952 323.184 C 246.674 325.891,247.483 325.800,225.800 325.800 L 206.200 325.800 204.547 324.853 C 203.593 324.306,202.494 323.207,201.947 322.253 L 201.000 320.600 200.872 302.200 C 200.728 281.596,200.835 280.391,202.999 278.228 C 205.114 276.113,205.594 276.074,229.000 276.140 L 250.600 276.200 250.600 298.000 " stroke="none" fill="#f0f0f0" fill-rule="evenodd"></path></g></svg>